<svg width="386" height="820" viewBox="0 0 386 820" fill="none" xmlns="http://www.w3.org/2000/svg">
<rect width="976" height="820" fill="url(#paint0_linear_61340:2780)"/>
<mask id="mask0_61340:2780" style="mask-type:alpha" maskUnits="userSpaceOnUse" x="0" y="0" width="976" height="820">
<rect width="976" height="820" fill="url(#paint1_linear_61340:2780)"/>
</mask>
<g mask="url(#mask0_61340:2780)">
<g style="mix-blend-mode:luminosity" opacity="0.4">
<path d="M0.000205994 304.761V374.986L60.9764 410.102L121.953 374.986V304.761L60.9764 269.646L0.000205994 304.761Z" fill="url(#paint2_linear_61340:2780)"/>
<path d="M0.000205994 234.533V304.758L60.9764 339.874L121.953 304.758V234.533L60.9764 199.417L0.000205994 234.533Z" fill="url(#paint3_linear_61340:2780)"/>
<path d="M182.929 199.435V269.66L121.953 304.776L60.9763 269.66V199.435L121.953 164.32L182.929 199.435Z" fill="url(#paint4_linear_61340:2780)"/>
<path d="M121.953 374.986V304.761L182.929 269.646L243.905 304.761V374.986L182.929 410.102L121.953 374.986Z" fill="url(#paint5_linear_61340:2780)"/>
<path d="M243.905 234.533V304.758L182.929 339.874L121.953 304.758V234.533L182.929 199.417L243.905 234.533Z" fill="url(#paint6_linear_61340:2780)"/>
<path d="M182.929 410.117V339.892L121.953 304.776L60.9763 339.892L60.9763 410.117L121.953 445.233L182.929 410.117Z" fill="url(#paint7_linear_61340:2780)"/>
</g>
<g style="mix-blend-mode:luminosity" opacity="0.4">
<path d="M244 304.761V374.986L304.976 410.102L365.953 374.986V304.761L304.976 269.646L244 304.761Z" fill="url(#paint8_linear_61340:2780)"/>
<path d="M244 234.533V304.758L304.976 339.874L365.953 304.758V234.533L304.976 199.417L244 234.533Z" fill="url(#paint9_linear_61340:2780)"/>
<path d="M426.929 199.435V269.66L365.952 304.776L304.976 269.66V199.435L365.952 164.32L426.929 199.435Z" fill="url(#paint10_linear_61340:2780)"/>
<path d="M365.953 374.986V304.761L426.929 269.646L487.905 304.761V374.986L426.929 410.102L365.953 374.986Z" fill="url(#paint11_linear_61340:2780)"/>
<path d="M487.905 234.533V304.758L426.929 339.874L365.953 304.758V234.533L426.929 199.417L487.905 234.533Z" fill="url(#paint12_linear_61340:2780)"/>
<path d="M426.929 410.117V339.892L365.952 304.776L304.976 339.892V410.117L365.952 445.233L426.929 410.117Z" fill="url(#paint13_linear_61340:2780)"/>
</g>
<g style="mix-blend-mode:luminosity" opacity="0.4">
<path d="M0.000205994 515.206V585.431L60.9764 620.547L121.953 585.431V515.206L60.9764 480.09L0.000205994 515.206Z" fill="url(#paint14_linear_61340:2780)"/>
<path d="M0.000205994 444.978V515.203L60.9764 550.318L121.953 515.203V444.978L60.9764 409.862L0.000205994 444.978Z" fill="url(#paint15_linear_61340:2780)"/>
<path d="M182.929 409.88V480.105L121.953 515.221L60.9763 480.105V409.88L121.953 374.764L182.929 409.88Z" fill="url(#paint16_linear_61340:2780)"/>
<path d="M121.953 585.431V515.206L182.929 480.09L243.905 515.206V585.431L182.929 620.547L121.953 585.431Z" fill="url(#paint17_linear_61340:2780)"/>
<path d="M243.905 444.978V515.203L182.929 550.318L121.953 515.203V444.978L182.929 409.862L243.905 444.978Z" fill="url(#paint18_linear_61340:2780)"/>
<path d="M182.929 620.562V550.337L121.953 515.221L60.9763 550.337L60.9763 620.562L121.953 655.677L182.929 620.562Z" fill="url(#paint19_linear_61340:2780)"/>
</g>
<g style="mix-blend-mode:luminosity" opacity="0.4">
<path d="M244 515.206V585.431L304.976 620.547L365.953 585.431V515.206L304.976 480.09L244 515.206Z" fill="url(#paint20_linear_61340:2780)"/>
<path d="M244 444.978V515.203L304.976 550.318L365.953 515.203V444.978L304.976 409.862L244 444.978Z" fill="url(#paint21_linear_61340:2780)"/>
<path d="M426.929 409.88V480.105L365.952 515.221L304.976 480.105V409.88L365.952 374.764L426.929 409.88Z" fill="url(#paint22_linear_61340:2780)"/>
<path d="M365.953 585.431V515.206L426.929 480.09L487.905 515.206V585.431L426.929 620.547L365.953 585.431Z" fill="url(#paint23_linear_61340:2780)"/>
<path d="M487.905 444.978V515.203L426.929 550.318L365.953 515.203V444.978L426.929 409.862L487.905 444.978Z" fill="url(#paint24_linear_61340:2780)"/>
<path d="M426.929 620.562V550.337L365.952 515.221L304.976 550.337V620.562L365.952 655.678L426.929 620.562Z" fill="url(#paint25_linear_61340:2780)"/>
</g>
<g style="mix-blend-mode:luminosity" opacity="0.4">
<path d="M0.000205994 725.651V795.875L60.9764 830.991L121.953 795.875V725.651L60.9764 690.535L0.000205994 725.651Z" fill="url(#paint26_linear_61340:2780)"/>
<path d="M0.000205994 655.422V725.647L60.9764 760.763L121.953 725.647V655.422L60.9764 620.306L0.000205994 655.422Z" fill="url(#paint27_linear_61340:2780)"/>
<path d="M182.929 620.325V690.55L121.953 725.665L60.9763 690.55V620.325L121.953 585.209L182.929 620.325Z" fill="url(#paint28_linear_61340:2780)"/>
<path d="M121.953 795.875V725.651L182.929 690.535L243.905 725.651V795.875L182.929 830.991L121.953 795.875Z" fill="url(#paint29_linear_61340:2780)"/>
<path d="M243.905 655.422V725.647L182.929 760.763L121.953 725.647V655.422L182.929 620.306L243.905 655.422Z" fill="url(#paint30_linear_61340:2780)"/>
<path d="M182.929 831.006V760.781L121.953 725.665L60.9763 760.781L60.9763 831.006L121.953 866.122L182.929 831.006Z" fill="url(#paint31_linear_61340:2780)"/>
</g>
<g style="mix-blend-mode:luminosity" opacity="0.4">
<path d="M244 725.651V795.876L304.976 830.991L365.953 795.876V725.651L304.976 690.535L244 725.651Z" fill="url(#paint32_linear_61340:2780)"/>
<path d="M244 655.422V725.647L304.976 760.763L365.953 725.647V655.422L304.976 620.306L244 655.422Z" fill="url(#paint33_linear_61340:2780)"/>
<path d="M426.929 620.325V690.55L365.952 725.666L304.976 690.55V620.325L365.952 585.209L426.929 620.325Z" fill="url(#paint34_linear_61340:2780)"/>
<path d="M365.953 795.875V725.651L426.929 690.535L487.905 725.651V795.875L426.929 830.991L365.953 795.875Z" fill="url(#paint35_linear_61340:2780)"/>
<path d="M487.905 655.422V725.647L426.929 760.763L365.953 725.647V655.422L426.929 620.306L487.905 655.422Z" fill="url(#paint36_linear_61340:2780)"/>
<path d="M426.929 831.006V760.781L365.952 725.666L304.976 760.781V831.006L365.952 866.122L426.929 831.006Z" fill="url(#paint37_linear_61340:2780)"/>
</g>
<g style="mix-blend-mode:luminosity" opacity="0.4">
<path d="M0.000205994 94.3169V164.542L60.9764 199.658L121.953 164.542V94.3169L60.9764 59.2011L0.000205994 94.3169Z" fill="url(#paint38_linear_61340:2780)"/>
<path d="M0.000205994 24.0885V94.3135L60.9764 129.429L121.953 94.3135V24.0885L60.9764 -11.0273L0.000205994 24.0885Z" fill="url(#paint39_linear_61340:2780)"/>
<path d="M182.929 -11.0091V59.2158L121.953 94.3317L60.9763 59.2158V-11.0091L121.953 -46.125L182.929 -11.0091Z" fill="url(#paint40_linear_61340:2780)"/>
<path d="M121.953 164.542V94.3168L182.929 59.2009L243.905 94.3168V164.542L182.929 199.658L121.953 164.542Z" fill="url(#paint41_linear_61340:2780)"/>
<path d="M243.905 24.0885V94.3135L182.929 129.429L121.953 94.3135V24.0885L182.929 -11.0273L243.905 24.0885Z" fill="url(#paint42_linear_61340:2780)"/>
<path d="M182.929 199.672V129.448L121.953 94.3317L60.9763 129.448L60.9763 199.672L121.953 234.788L182.929 199.672Z" fill="url(#paint43_linear_61340:2780)"/>
</g>
<g style="mix-blend-mode:luminosity" opacity="0.4">
<path d="M244 94.3169V164.542L304.976 199.658L365.953 164.542V94.3169L304.976 59.2011L244 94.3169Z" fill="url(#paint44_linear_61340:2780)"/>
<path d="M244 24.0885V94.3135L304.976 129.429L365.953 94.3135V24.0885L304.976 -11.0273L244 24.0885Z" fill="url(#paint45_linear_61340:2780)"/>
<path d="M426.929 -11.0091V59.2158L365.952 94.3317L304.976 59.2158V-11.0091L365.952 -46.125L426.929 -11.0091Z" fill="url(#paint46_linear_61340:2780)"/>
<path d="M365.953 164.542V94.3168L426.929 59.2009L487.905 94.3168V164.542L426.929 199.658L365.953 164.542Z" fill="url(#paint47_linear_61340:2780)"/>
<path d="M487.905 24.0885V94.3135L426.929 129.429L365.953 94.3135V24.0885L426.929 -11.0273L487.905 24.0885Z" fill="url(#paint48_linear_61340:2780)"/>
<path d="M426.929 199.672V129.448L365.952 94.3317L304.976 129.448V199.672L365.952 234.788L426.929 199.672Z" fill="url(#paint49_linear_61340:2780)"/>
</g>
</g>
<defs>
<linearGradient id="paint0_linear_61340:2780" x1="305" y1="0" x2="305" y2="820" gradientUnits="userSpaceOnUse">
<stop stop-color="#FF008E"/>
<stop offset="1" stop-color="#FFCD1E"/>
</linearGradient>
<linearGradient id="paint1_linear_61340:2780" x1="305" y1="0" x2="305" y2="820" gradientUnits="userSpaceOnUse">
<stop stop-color="#FF008E"/>
<stop offset="1" stop-color="#FFCD1E"/>
</linearGradient>
<linearGradient id="paint2_linear_61340:2780" x1="60.9764" y1="406.873" x2="0.231895" y2="303.246" gradientUnits="userSpaceOnUse">
<stop stop-color="#8257E5"/>
<stop offset="1" stop-color="#FF008E" stop-opacity="0"/>
</linearGradient>
<linearGradient id="paint3_linear_61340:2780" x1="60.9764" y1="336.644" x2="0.231885" y2="233.017" gradientUnits="userSpaceOnUse">
<stop stop-color="#8257E5"/>
<stop offset="1" stop-color="#FF008E" stop-opacity="0"/>
</linearGradient>
<linearGradient id="paint4_linear_61340:2780" x1="60.9763" y1="195.489" x2="182.763" y2="268.955" gradientUnits="userSpaceOnUse">
<stop stop-color="#FF008E" stop-opacity="0"/>
<stop offset="1" stop-color="#FFCD1E"/>
</linearGradient>
<linearGradient id="paint5_linear_61340:2780" x1="243.905" y1="378.933" x2="122.119" y2="305.467" gradientUnits="userSpaceOnUse">
<stop stop-color="#FF008E" stop-opacity="0"/>
<stop offset="1" stop-color="#FFCD1E"/>
</linearGradient>
<linearGradient id="paint6_linear_61340:2780" x1="182.929" y1="336.644" x2="243.673" y2="233.017" gradientUnits="userSpaceOnUse">
<stop stop-color="#8257E5"/>
<stop offset="1" stop-color="#FF008E" stop-opacity="0"/>
</linearGradient>
<linearGradient id="paint7_linear_61340:2780" x1="121.953" y1="308.006" x2="182.697" y2="411.633" gradientUnits="userSpaceOnUse">
<stop stop-color="#8257E5"/>
<stop offset="1" stop-color="#FF008E" stop-opacity="0"/>
</linearGradient>
<linearGradient id="paint8_linear_61340:2780" x1="304.976" y1="406.872" x2="244.232" y2="303.246" gradientUnits="userSpaceOnUse">
<stop stop-color="#8257E5"/>
<stop offset="1" stop-color="#FF008E" stop-opacity="0"/>
</linearGradient>
<linearGradient id="paint9_linear_61340:2780" x1="304.976" y1="336.644" x2="244.232" y2="233.017" gradientUnits="userSpaceOnUse">
<stop stop-color="#8257E5"/>
<stop offset="1" stop-color="#FF008E" stop-opacity="0"/>
</linearGradient>
<linearGradient id="paint10_linear_61340:2780" x1="304.976" y1="195.489" x2="426.762" y2="268.955" gradientUnits="userSpaceOnUse">
<stop stop-color="#FF008E" stop-opacity="0"/>
<stop offset="1" stop-color="#FFCD1E"/>
</linearGradient>
<linearGradient id="paint11_linear_61340:2780" x1="487.905" y1="378.933" x2="366.119" y2="305.467" gradientUnits="userSpaceOnUse">
<stop stop-color="#FF008E" stop-opacity="0"/>
<stop offset="1" stop-color="#FFCD1E"/>
</linearGradient>
<linearGradient id="paint12_linear_61340:2780" x1="426.929" y1="336.644" x2="487.673" y2="233.017" gradientUnits="userSpaceOnUse">
<stop stop-color="#8257E5"/>
<stop offset="1" stop-color="#FF008E" stop-opacity="0"/>
</linearGradient>
<linearGradient id="paint13_linear_61340:2780" x1="365.952" y1="308.006" x2="426.697" y2="411.633" gradientUnits="userSpaceOnUse">
<stop stop-color="#8257E5"/>
<stop offset="1" stop-color="#FF008E" stop-opacity="0"/>
</linearGradient>
<linearGradient id="paint14_linear_61340:2780" x1="60.9764" y1="617.317" x2="0.231895" y2="513.69" gradientUnits="userSpaceOnUse">
<stop stop-color="#8257E5"/>
<stop offset="1" stop-color="#FF008E" stop-opacity="0"/>
</linearGradient>
<linearGradient id="paint15_linear_61340:2780" x1="60.9764" y1="547.089" x2="0.231885" y2="443.462" gradientUnits="userSpaceOnUse">
<stop stop-color="#8257E5"/>
<stop offset="1" stop-color="#FF008E" stop-opacity="0"/>
</linearGradient>
<linearGradient id="paint16_linear_61340:2780" x1="60.9763" y1="405.933" x2="182.763" y2="479.4" gradientUnits="userSpaceOnUse">
<stop stop-color="#FF008E" stop-opacity="0"/>
<stop offset="1" stop-color="#FFCD1E"/>
</linearGradient>
<linearGradient id="paint17_linear_61340:2780" x1="243.905" y1="589.378" x2="122.119" y2="515.911" gradientUnits="userSpaceOnUse">
<stop stop-color="#FF008E" stop-opacity="0"/>
<stop offset="1" stop-color="#FFCD1E"/>
</linearGradient>
<linearGradient id="paint18_linear_61340:2780" x1="182.929" y1="547.089" x2="243.673" y2="443.462" gradientUnits="userSpaceOnUse">
<stop stop-color="#8257E5"/>
<stop offset="1" stop-color="#FF008E" stop-opacity="0"/>
</linearGradient>
<linearGradient id="paint19_linear_61340:2780" x1="121.953" y1="518.451" x2="182.697" y2="622.077" gradientUnits="userSpaceOnUse">
<stop stop-color="#8257E5"/>
<stop offset="1" stop-color="#FF008E" stop-opacity="0"/>
</linearGradient>
<linearGradient id="paint20_linear_61340:2780" x1="304.976" y1="617.317" x2="244.232" y2="513.69" gradientUnits="userSpaceOnUse">
<stop stop-color="#8257E5"/>
<stop offset="1" stop-color="#FF008E" stop-opacity="0"/>
</linearGradient>
<linearGradient id="paint21_linear_61340:2780" x1="304.976" y1="547.089" x2="244.232" y2="443.462" gradientUnits="userSpaceOnUse">
<stop stop-color="#8257E5"/>
<stop offset="1" stop-color="#FF008E" stop-opacity="0"/>
</linearGradient>
<linearGradient id="paint22_linear_61340:2780" x1="304.976" y1="405.933" x2="426.762" y2="479.4" gradientUnits="userSpaceOnUse">
<stop stop-color="#FF008E" stop-opacity="0"/>
<stop offset="1" stop-color="#FFCD1E"/>
</linearGradient>
<linearGradient id="paint23_linear_61340:2780" x1="487.905" y1="589.378" x2="366.119" y2="515.911" gradientUnits="userSpaceOnUse">
<stop stop-color="#FF008E" stop-opacity="0"/>
<stop offset="1" stop-color="#FFCD1E"/>
</linearGradient>
<linearGradient id="paint24_linear_61340:2780" x1="426.929" y1="547.089" x2="487.673" y2="443.462" gradientUnits="userSpaceOnUse">
<stop stop-color="#8257E5"/>
<stop offset="1" stop-color="#FF008E" stop-opacity="0"/>
</linearGradient>
<linearGradient id="paint25_linear_61340:2780" x1="365.952" y1="518.451" x2="426.697" y2="622.078" gradientUnits="userSpaceOnUse">
<stop stop-color="#8257E5"/>
<stop offset="1" stop-color="#FF008E" stop-opacity="0"/>
</linearGradient>
<linearGradient id="paint26_linear_61340:2780" x1="60.9764" y1="827.762" x2="0.231895" y2="724.135" gradientUnits="userSpaceOnUse">
<stop stop-color="#8257E5"/>
<stop offset="1" stop-color="#FF008E" stop-opacity="0"/>
</linearGradient>
<linearGradient id="paint27_linear_61340:2780" x1="60.9764" y1="757.533" x2="0.231885" y2="653.906" gradientUnits="userSpaceOnUse">
<stop stop-color="#8257E5"/>
<stop offset="1" stop-color="#FF008E" stop-opacity="0"/>
</linearGradient>
<linearGradient id="paint28_linear_61340:2780" x1="60.9763" y1="616.378" x2="182.763" y2="689.844" gradientUnits="userSpaceOnUse">
<stop stop-color="#FF008E" stop-opacity="0"/>
<stop offset="1" stop-color="#FFCD1E"/>
</linearGradient>
<linearGradient id="paint29_linear_61340:2780" x1="243.905" y1="799.822" x2="122.119" y2="726.356" gradientUnits="userSpaceOnUse">
<stop stop-color="#FF008E" stop-opacity="0"/>
<stop offset="1" stop-color="#FFCD1E"/>
</linearGradient>
<linearGradient id="paint30_linear_61340:2780" x1="182.929" y1="757.533" x2="243.673" y2="653.906" gradientUnits="userSpaceOnUse">
<stop stop-color="#8257E5"/>
<stop offset="1" stop-color="#FF008E" stop-opacity="0"/>
</linearGradient>
<linearGradient id="paint31_linear_61340:2780" x1="121.953" y1="728.895" x2="182.697" y2="832.522" gradientUnits="userSpaceOnUse">
<stop stop-color="#8257E5"/>
<stop offset="1" stop-color="#FF008E" stop-opacity="0"/>
</linearGradient>
<linearGradient id="paint32_linear_61340:2780" x1="304.976" y1="827.762" x2="244.232" y2="724.135" gradientUnits="userSpaceOnUse">
<stop stop-color="#8257E5"/>
<stop offset="1" stop-color="#FF008E" stop-opacity="0"/>
</linearGradient>
<linearGradient id="paint33_linear_61340:2780" x1="304.976" y1="757.533" x2="244.232" y2="653.906" gradientUnits="userSpaceOnUse">
<stop stop-color="#8257E5"/>
<stop offset="1" stop-color="#FF008E" stop-opacity="0"/>
</linearGradient>
<linearGradient id="paint34_linear_61340:2780" x1="304.976" y1="616.378" x2="426.762" y2="689.844" gradientUnits="userSpaceOnUse">
<stop stop-color="#FF008E" stop-opacity="0"/>
<stop offset="1" stop-color="#FFCD1E"/>
</linearGradient>
<linearGradient id="paint35_linear_61340:2780" x1="487.905" y1="799.822" x2="366.119" y2="726.356" gradientUnits="userSpaceOnUse">
<stop stop-color="#FF008E" stop-opacity="0"/>
<stop offset="1" stop-color="#FFCD1E"/>
</linearGradient>
<linearGradient id="paint36_linear_61340:2780" x1="426.929" y1="757.533" x2="487.673" y2="653.906" gradientUnits="userSpaceOnUse">
<stop stop-color="#8257E5"/>
<stop offset="1" stop-color="#FF008E" stop-opacity="0"/>
</linearGradient>
<linearGradient id="paint37_linear_61340:2780" x1="365.952" y1="728.895" x2="426.697" y2="832.522" gradientUnits="userSpaceOnUse">
<stop stop-color="#8257E5"/>
<stop offset="1" stop-color="#FF008E" stop-opacity="0"/>
</linearGradient>
<linearGradient id="paint38_linear_61340:2780" x1="60.9764" y1="196.428" x2="0.231895" y2="92.8011" gradientUnits="userSpaceOnUse">
<stop stop-color="#8257E5"/>
<stop offset="1" stop-color="#FF008E" stop-opacity="0"/>
</linearGradient>
<linearGradient id="paint39_linear_61340:2780" x1="60.9764" y1="126.2" x2="0.231885" y2="22.5727" gradientUnits="userSpaceOnUse">
<stop stop-color="#8257E5"/>
<stop offset="1" stop-color="#FF008E" stop-opacity="0"/>
</linearGradient>
<linearGradient id="paint40_linear_61340:2780" x1="60.9763" y1="-14.9558" x2="182.763" y2="58.5105" gradientUnits="userSpaceOnUse">
<stop stop-color="#FF008E" stop-opacity="0"/>
<stop offset="1" stop-color="#FFCD1E"/>
</linearGradient>
<linearGradient id="paint41_linear_61340:2780" x1="243.905" y1="168.488" x2="122.119" y2="95.0221" gradientUnits="userSpaceOnUse">
<stop stop-color="#FF008E" stop-opacity="0"/>
<stop offset="1" stop-color="#FFCD1E"/>
</linearGradient>
<linearGradient id="paint42_linear_61340:2780" x1="182.929" y1="126.2" x2="243.673" y2="22.5727" gradientUnits="userSpaceOnUse">
<stop stop-color="#8257E5"/>
<stop offset="1" stop-color="#FF008E" stop-opacity="0"/>
</linearGradient>
<linearGradient id="paint43_linear_61340:2780" x1="121.953" y1="97.5614" x2="182.697" y2="201.188" gradientUnits="userSpaceOnUse">
<stop stop-color="#8257E5"/>
<stop offset="1" stop-color="#FF008E" stop-opacity="0"/>
</linearGradient>
<linearGradient id="paint44_linear_61340:2780" x1="304.976" y1="196.428" x2="244.232" y2="92.8011" gradientUnits="userSpaceOnUse">
<stop stop-color="#8257E5"/>
<stop offset="1" stop-color="#FF008E" stop-opacity="0"/>
</linearGradient>
<linearGradient id="paint45_linear_61340:2780" x1="304.976" y1="126.2" x2="244.232" y2="22.5727" gradientUnits="userSpaceOnUse">
<stop stop-color="#8257E5"/>
<stop offset="1" stop-color="#FF008E" stop-opacity="0"/>
</linearGradient>
<linearGradient id="paint46_linear_61340:2780" x1="304.976" y1="-14.9558" x2="426.762" y2="58.5105" gradientUnits="userSpaceOnUse">
<stop stop-color="#FF008E" stop-opacity="0"/>
<stop offset="1" stop-color="#FFCD1E"/>
</linearGradient>
<linearGradient id="paint47_linear_61340:2780" x1="487.905" y1="168.488" x2="366.119" y2="95.0221" gradientUnits="userSpaceOnUse">
<stop stop-color="#FF008E" stop-opacity="0"/>
<stop offset="1" stop-color="#FFCD1E"/>
</linearGradient>
<linearGradient id="paint48_linear_61340:2780" x1="426.929" y1="126.2" x2="487.673" y2="22.5727" gradientUnits="userSpaceOnUse">
<stop stop-color="#8257E5"/>
<stop offset="1" stop-color="#FF008E" stop-opacity="0"/>
</linearGradient>
<linearGradient id="paint49_linear_61340:2780" x1="365.952" y1="97.5614" x2="426.697" y2="201.188" gradientUnits="userSpaceOnUse">
<stop stop-color="#8257E5"/>
<stop offset="1" stop-color="#FF008E" stop-opacity="0"/>
</linearGradient>
</defs>
</svg>
